<?xml version="1.0" encoding="UTF-8"?>
<svg version="1.1" xmlns="http://www.w3.org/2000/svg" width="417" height="522">
<path d="M0 0 C7.398189 6.0829554 12.49285663 15.57101212 14 25 C15.34455536 39.2143915 13.20942822 50.93015129 4.27734375 62.45703125 C-1.14981694 68.51720554 -7.69797058 73.42349579 -15 77 C-15.99 77 -16.98 77 -18 77 C-18 140.69 -18 204.38 -18 270 C-16.02 270.66 -14.04 271.32 -12 272 C0.57293011 279.29151119 8.44002814 288.56475603 13.13671875 302.33203125 C15.91166369 314.12240816 14.82862945 326.3288981 9 337 C6.92374461 340.290764 4.65890619 343.16271855 2 346 C1.41605469 346.62519531 0.83210938 347.25039063 0.23046875 347.89453125 C-8.78280873 356.6042036 -20.6389195 360.56388691 -33 361 C-46.52566013 360.52697145 -57.09045483 355.6801964 -66.8125 346.34765625 C-73.02545089 339.6798286 -76.24389743 332.62165419 -79 324 C-79.33 323.01 -79.66 322.02 -80 321 C-79.86313126 319.6138549 -79.668958 318.23289547 -79.4375 316.859375 C-78.83094256 311.28025857 -78.63189901 306.19993449 -81 301 C-86.92646567 294.92223181 -95.09701558 291.4237695 -102.6171875 287.70849609 C-107.62692291 285.17831939 -112.3906526 282.28263019 -117.1875 279.375 C-118.99848484 278.3034248 -120.81098378 277.23440424 -122.625 276.16796875 C-127.98130896 273.01143378 -133.33491591 269.85034659 -138.6875 266.6875 C-139.58597656 266.15664795 -140.48445312 265.6257959 -141.41015625 265.07885742 C-148.67239704 260.787011 -155.93048903 256.48818235 -163.1875 252.1875 C-164.31945801 251.51686523 -165.45141602 250.84623047 -166.61767578 250.15527344 C-172.34938498 246.75908835 -178.07888311 243.35926145 -183.8046875 239.953125 C-198.29540225 231.33911309 -212.8491288 222.84701449 -227.47412109 214.46362305 C-229.23222066 213.4448905 -230.97230242 212.39468718 -232.69726562 211.32080078 C-235.26922243 209.84557959 -236.25152472 209.72315513 -239.125 210.1875 C-239.90488281 210.30222656 -240.68476563 210.41695312 -241.48828125 210.53515625 C-243.19874467 210.85171169 -244.90460972 211.19394181 -246.60546875 211.55859375 C-259.34128995 214.22337596 -270.03729624 212.36828611 -281.25 205.65234375 C-291.36254969 198.56170832 -298.18153037 189.11536677 -300.6171875 176.90625 C-302.22246027 164.7192812 -299.47587189 154.44495465 -293 144 C-286.00860557 134.9457981 -275.97285393 128.94538693 -264.62109375 127.18359375 C-254.09329568 126.44617719 -242.91346314 128.05769124 -234 134 C-229.89479795 133.67944804 -227.00005157 132.03990778 -223.51953125 129.9296875 C-222.45154297 129.28837891 -221.38355469 128.64707031 -220.28320312 127.98632812 C-219.71867432 127.64287354 -219.15414551 127.29941895 -218.57250977 126.94555664 C-215.54282814 125.10269995 -212.49871294 123.2838929 -209.45703125 121.4609375 C-208.8332962 121.08616272 -208.20956116 120.71138794 -207.56692505 120.32525635 C-201.42275725 116.63861639 -195.21694436 113.06235253 -189 109.5 C-179.32705789 103.94732871 -169.71892564 98.29439325 -160.13546753 92.58947754 C-153.04057525 88.36786096 -145.91740891 84.22058593 -138.69824219 80.21582031 C-132.76722835 76.90903855 -126.96641292 73.3956428 -121.15625 69.88208008 C-110.74230011 63.60489291 -100.18611551 57.57322178 -89.63696289 51.52709961 C-87.83417142 50.48307955 -86.04990265 49.406584 -84.28295898 48.30297852 C-82 47 -82 47 -80 47 C-80.04640625 45.70707031 -80.0928125 44.41414063 -80.140625 43.08203125 C-80.55453049 26.74928918 -78.52621007 14.05741137 -66.8984375 1.78125 C-47.38613031 -16.69683596 -20.8448405 -15.04125229 0 0 Z " fill="#1F7A8B" transform="translate(324,105)"/>
<path d="M0 0 C5.42559372 0.84127184 8.70761665 4.86380215 12 9 C13 12.5 13 12.5 13 15 C2.32352941 4.64705882 2.32352941 4.64705882 0 0 Z " fill="#1D6982" transform="translate(318,383)"/>
<path d="M0 0 C0.33 0 0.66 0 1 0 C1.02688151 1.64574566 1.04634123 3.29161413 1.0625 4.9375 C1.07410156 5.85402344 1.08570313 6.77054688 1.09765625 7.71484375 C1 10 1 10 0 11 C-0.23678716 13.69235776 -0.42198025 16.36498156 -0.5625 19.0625 C-0.60568359 19.82111328 -0.64886719 20.57972656 -0.69335938 21.36132812 C-0.79973633 23.24065438 -0.90039934 25.12030244 -1 27 C-1.33 27 -1.66 27 -2 27 C-2.05444001 23.99975053 -2.0938836 21.00050961 -2.125 18 C-2.14175781 17.16082031 -2.15851563 16.32164062 -2.17578125 15.45703125 C-2.21849117 9.94745123 -1.55502007 5.28951708 0 0 Z " fill="#318C9C" transform="translate(246,124)"/>
<path d="M0 0 C2.30387977 3.70131505 2.46258536 7.20568714 2.75 11.5 C2.84796875 12.8096875 2.9459375 14.119375 3.046875 15.46875 C3.00305587 18.76979075 2.8917823 20.35668775 1 23 C0.34 23.33 -0.32 23.66 -1 24 C-0.7525 22.515 -0.7525 22.515 -0.5 21 C0.39377749 14.05119475 0.07635992 6.99117499 0 0 Z " fill="#12576B" transform="translate(335,128)"/>
<path d="M0 0 C2.96881824 2.45250202 3.46229503 4.23606519 4 8 C4.06701506 10.43666765 4.08528021 12.87501742 4.0625 15.3125 C4.05347656 16.56675781 4.04445313 17.82101563 4.03515625 19.11328125 C4.01775391 20.54220703 4.01775391 20.54220703 4 22 C3.67 22 3.34 22 3 22 C2.67 16.72 2.34 11.44 2 6 C1.34 6 0.68 6 0 6 C0 4.02 0 2.04 0 0 Z " fill="#2C6D93" transform="translate(334,122)"/>
<path d="M0 0 C0.99 0.33 1.98 0.66 3 1 C1.89718873 2.27200971 0.79269231 3.54255853 -0.3125 4.8125 C-1.23482422 5.87404297 -1.23482422 5.87404297 -2.17578125 6.95703125 C-3.73334335 8.70136739 -5.32658875 10.36778041 -7 12 C-6.67566492 6.64847115 -3.50295176 3.71719957 0 0 Z " fill="#207280" transform="translate(36,244)"/>
<path d="M0 0 C0.33 0.99 0.66 1.98 1 3 C-0.28627711 4.17260611 -1.57919783 5.3379283 -2.875 6.5 C-3.59429687 7.1496875 -4.31359375 7.799375 -5.0546875 8.46875 C-7 10 -7 10 -9 10 C-7.61811547 6.78956118 -6.07578097 4.95063635 -3.375 2.75 C-2.74335938 2.22921875 -2.11171875 1.7084375 -1.4609375 1.171875 C-0.73777344 0.59179688 -0.73777344 0.59179688 0 0 Z " fill="#1D6976" transform="translate(325,448)"/>
<path d="M0 0 C-1.78524649 1.19713017 -3.5784028 2.38247279 -5.375 3.5625 C-6.87160156 4.55443359 -6.87160156 4.55443359 -8.3984375 5.56640625 C-9.25695312 6.03949219 -10.11546875 6.51257813 -11 7 C-11.66 6.67 -12.32 6.34 -13 6 C-5.74729569 -1.78994167 -5.74729569 -1.78994167 0 0 Z " fill="#217381" transform="translate(177,193)"/>
<path d="M0 0 C1.37562854 1.28965176 2.70766393 2.62689293 4 4 C4 4.66 4 5.32 4 6 C4.61875 6.268125 5.2375 6.53625 5.875 6.8125 C8 8 8 8 10 11 C6.49411644 10.43601004 5.01017608 9.33036227 2.75 6.625 C2.22921875 6.01914062 1.7084375 5.41328125 1.171875 4.7890625 C0 3 0 3 0 0 Z " fill="#1F7281" transform="translate(30,295)"/>
<path d="M0 0 C3.48331435 3.01887244 4.79157144 5.56909529 6 10 C5.34 10.66 4.68 11.32 4 12 C3.32332002 10.75539217 2.65905281 9.50403104 2 8.25 C1.62875 7.55390625 1.2575 6.8578125 0.875 6.140625 C0 4 0 4 0 0 Z " fill="#1E5A65" transform="translate(329,112)"/>
<path d="M0 0 C2 4 2 4 1.5390625 6.359375 C1.23742187 7.14828125 0.93578125 7.9371875 0.625 8.75 C0.32851563 9.54921875 0.03203125 10.3484375 -0.2734375 11.171875 C-0.51320313 11.77515625 -0.75296875 12.3784375 -1 13 C-1.66 12.67 -2.32 12.34 -3 12 C-2.01 8.04 -1.02 4.08 0 0 Z " fill="#19576E" transform="translate(335,427)"/>
<path d="M0 0 C0.33 0 0.66 0 1 0 C1.05383848 2.45862401 1.09359038 4.9160755 1.125 7.375 C1.14175781 8.07367188 1.15851563 8.77234375 1.17578125 9.4921875 C1.19344267 11.32897486 1.10303261 13.16601963 1 15 C0.34 15.66 -0.32 16.32 -1 17 C-1.33 14.69 -1.66 12.38 -2 10 C-1.67 10 -1.34 10 -1 10 C-0.67 6.7 -0.34 3.4 0 0 Z " fill="#2F7093" transform="translate(337,414)"/>
<path d="M0 0 C4.30764815 1.56641751 8.06171464 3.68336156 12 6 C10.4375 6.75 10.4375 6.75 8 7 C5.45280141 5.97667131 3.13666413 4.72727704 1 3 C0.67 2.01 0.34 1.02 0 0 Z " fill="#1C7283" transform="translate(217,388)"/>
<path d="M0 0 C3.79588866 0.54226981 5.47211993 2.20127563 8 5 C7.67 5.66 7.34 6.32 7 7 C6.34 7 5.68 7 5 7 C5 6.34 5 5.68 5 5 C4.34 5 3.68 5 3 5 C1.375 3.625 1.375 3.625 0 2 C0 1.34 0 0.68 0 0 Z " fill="#155963" transform="translate(321,105)"/>
<path d="M0 0 C3.59391114 1.33488128 6.75490696 2.96022723 10 5 C8.375 5.75 8.375 5.75 6 6 C2.75 4.1875 2.75 4.1875 0 2 C0 1.34 0 0.68 0 0 Z " fill="#207282" transform="translate(200,378)"/>
<path d="M0 0 C4.05606165 0.46800711 7.46588679 0.87953208 11 3 C11 3.66 11 4.32 11 5 C7.08406554 4.21681311 3.63593365 2.60820142 0 1 C0 0.67 0 0.34 0 0 Z " fill="#1E6976" transform="translate(306,97)"/>
<path d="M0 0 C0.8971875 0.309375 0.8971875 0.309375 1.8125 0.625 C0.52725739 1.48880259 -0.76592419 2.34080369 -2.0625 3.1875 C-2.78179687 3.66316406 -3.50109375 4.13882813 -4.2421875 4.62890625 C-4.88414063 4.95761719 -5.52609375 5.28632813 -6.1875 5.625 C-6.8475 5.295 -7.5075 4.965 -8.1875 4.625 C-3.2421875 -0.55580357 -3.2421875 -0.55580357 0 0 Z " fill="#1C717F" transform="translate(117.1875,226.375)"/>
<path d="M0 0 C0.8971875 0.309375 0.8971875 0.309375 1.8125 0.625 C0.52725739 1.48880259 -0.76592419 2.34080369 -2.0625 3.1875 C-2.78179687 3.66316406 -3.50109375 4.13882813 -4.2421875 4.62890625 C-4.88414062 4.95761719 -5.52609375 5.28632813 -6.1875 5.625 C-6.8475 5.295 -7.5075 4.965 -8.1875 4.625 C-3.2421875 -0.55580357 -3.2421875 -0.55580357 0 0 Z " fill="#1F7180" transform="translate(141.1875,212.375)"/>
<path d="" fill="#00BFBF" transform="translate(0,0)"/>
<path d="" fill="#00FFFF" transform="translate(0,0)"/>
<path d="" fill="#000000" transform="translate(0,0)"/>
<path d="" fill="#00FFFF" transform="translate(0,0)"/>
<path d="" fill="#00FFFF" transform="translate(0,0)"/>
<path d="" fill="#00FFFF" transform="translate(0,0)"/>
<path d="" fill="#55AAAA" transform="translate(0,0)"/>
<path d="" fill="#55AAAA" transform="translate(0,0)"/>
<path d="" fill="#00FFFF" transform="translate(0,0)"/>
<path d="" fill="#00FFFF" transform="translate(0,0)"/>
<path d="" fill="#00FFFF" transform="translate(0,0)"/>
<path d="" fill="#00FFFF" transform="translate(0,0)"/>
<path d="" fill="#00FFFF" transform="translate(0,0)"/>
<path d="" fill="#00FFFF" transform="translate(0,0)"/>
<path d="" fill="#00FFFF" transform="translate(0,0)"/>
<path d="" fill="#0000FF" transform="translate(0,0)"/>
<path d="" fill="#00FFFF" transform="translate(0,0)"/>
<path d="" fill="#007F7F" transform="translate(0,0)"/>
<path d="" fill="#00FFFF" transform="translate(0,0)"/>
<path d="" fill="#00FFFF" transform="translate(0,0)"/>
<path d="" fill="#00FFFF" transform="translate(0,0)"/>
<path d="" fill="#007F7F" transform="translate(0,0)"/>
<path d="" fill="#00FFFF" transform="translate(0,0)"/>
<path d="" fill="#00FFFF" transform="translate(0,0)"/>
<path d="" fill="#55AAAA" transform="translate(0,0)"/>
<path d="" fill="#00FFFF" transform="translate(0,0)"/>
<path d="" fill="#007F7F" transform="translate(0,0)"/>
<path d="" fill="#007F7F" transform="translate(0,0)"/>
<path d="" fill="#00FFFF" transform="translate(0,0)"/>
<path d="" fill="#007F7F" transform="translate(0,0)"/>
</svg>
